<svg xmlns="http://www.w3.org/2000/svg" viewBox="0 0 11.8 13"><title>icon-bell</title><path d="M11.1 10.2L9.9 9c-1-.9-1.4-1.4-1.4-3.7s-.1-3.5-2.6-3.5-2.7 1.3-2.7 3.5S2.9 8.1 1.9 9L.7 10.2v.2s.1.9 5.3.9 5.3-.9 5.3-.9v-.2zM5.9.6a.3.3 0 1 0 .3.3.3.3 0 0 0-.3-.3zm0 11.8a.6.6 0 0 0 .6-.6H5.3a.6.6 0 0 0 .6.6zm1.2-.6a1.2 1.2 0 1 1-2.4 0C.9 11.7 0 11.1 0 10.3a.8.8 0 0 1 .3-.6c1.8-2 2.3-1.4 2.3-4.4s.1-3.7 2.5-4.1a.9.9 0 1 1 1.6 0c2.4.3 2.4 2.1 2.4 4.1s.5 2.4 2.3 4.4a.8.8 0 0 1 .3.6c.1.8-.9 1.4-4.6 1.5z" fill="#010101" fill-rule="evenodd"/></svg>